# AST/ASF file generated using VICON BodyLanguage
# -----------------------------------------------
:version 1.10
:name VICON
:units
  mass 1.0
  length 0.45
  angle deg
:documentation
   .ast/.asf automatically generated from VICON data using
   VICON BodyBuilder and BodyLanguage model FoxedUp or BRILLIANT.MOD
:root
   order TX TY TZ RX RY RZ
   axis XYZ
   position 0 0 0  
   orientation 0 0 0 
:bonedata
  begin
     id 1 
     name lhipjoint
     direction 0.624716 -0.669793 0.401383 
     length 2.38238 
     axis 0 0 0  XYZ
  end
  begin
     id 2 
     name lfemur
     direction 0.34202 -0.939693 0  
     length 6.4574  
     axis 0 0 20  XYZ
    dof rx ry rz
    limits (-160.0 20.0)
           (-70.0 70.0)
           (-60.0 70.0)
  end
  begin
     id 3 
     name ltibia
     direction 0.34202 -0.939693 0   
     length 7.68739   
     axis 0 0 20   XYZ
    dof rx
    limits (-10.0 170.0)
  end
  begin
     id 4 
     name lfoot
     direction 0.0681309 -0.187188 0.979959   
     length 2.46615   
     axis -90 7.62852e-016 20   XYZ
    dof rx rz
    limits (-45.0 90.0)
           (-70.0 20.0)
  end
  begin
     id 5 
     name ltoes
     direction 1.53566e-011 -4.21819e-011 1   
     length 1.2376   
     axis -90 7.62852e-016 20   XYZ
    dof rx
    limits (-90.0 20.0)
  end
  begin
     id 6 
     name rhipjoint
     direction -0.644473 -0.655875 0.393043   
     length 2.43293  
     axis 0 0 0  XYZ 
  end
  begin
     id 7 
     name rfemur
     direction -0.34202 -0.939693 0   
     length 6.7025   
     axis 0 0 -20   XYZ
    dof rx ry rz
    limits (-160.0 20.0)
           (-70.0 70.0)
           (-70.0 60.0)
  end
  begin
     id 8 
     name rtibia
     direction -0.34202 -0.939693 0   
     length 7.80547   
     axis 0 0 -20   XYZ
    dof rx
    limits (-10.0 170.0)
 end
 begin
     id 9 
     name rfoot
     direction -0.0756734 -0.207911 0.975216   
     length 2.40315  
     axis -90 -7.62852e-016 -20   XYZ
    dof rx rz
    limits (-45.0 90.0)
           (-20.0 70.0)
  end
  begin
     id 10 
     name rtoes
     direction -1.5353e-011 -4.21879e-011 1   
     length 1.20477   
     axis -90 -7.62852e-016 -20   XYZ
    dof rx
    limits (-90.0 20.0)
  end
  begin
     id 11 
     name lowerback
     direction 0.0160353 0.987463 -0.157037   
     length 2.18572   
     axis 0 0 0   XYZ
    dof rx ry rz
    limits (-20.0 45.0)
           (-30.0 30.0)
           (-30.0 30.0)
  end
  begin
     id 12 
     name upperback
     direction -0.00499661 0.999756 0.0215076   
     length 2.18016   
     axis 0 0 0   XYZ
    dof rx ry rz
    limits (-20.0 45.0)
           (-30.0 30.0)
           (-30.0 30.0)
  end
  begin
     id 13 
     name thorax
     direction -0.00921346 0.995333 0.0960619   
     length 2.24923   
     axis 0 0 0   XYZ
    dof rx ry rz
    limits (-20.0 45.0)
           (-30.0 30.0)
           (-30.0 30.0)
  end
  begin
     id 14 
     name lowerneck
     direction 0.0274184 0.991181 0.12965   
     length 1.70911   
     axis 0 0 0   XYZ
    dof rx ry rz
    limits (-20.0 45.0)
           (-30.0 30.0)
           (-30.0 30.0)
  end
  begin
     id 15 
     name upperneck
     direction 0.0015627 0.999959 -0.00893559   
     length 1.69312   
     axis 0 0 0   XYZ
    dof rx ry rz
    limits (-20.0 45.0)
           (-30.0 30.0)
           (-30.0 30.0)
  end
  begin
     id 16
     name head
     direction -0.00230242 0.999856 -0.0168327  
     length 1.80241  
     axis 0 0 0   XYZ
    dof rx ry rz
    limits (-20.0 45.0)
           (-30.0 30.0)
           (-30.0 30.0)
  end
  begin
     id 17 
     name lclavicle
     direction 0.955523 0.290741 -0.0494489  
     length 3.84275  
     axis 0 0 0   XYZ
    dof ry rz
    limits (-20.0 10.0)
           (0.0 20.0)
  end
  begin
     id 18 
     name lhumerus
     direction 1 -4.48967e-011 -3.18382e-028   
     length 5.17714   
     axis 180 -30 -90   XYZ
    dof rx ry rz
    limits (-60.0 90.0)
           (-90.0 90.0)
           (-90.0 90.0)
  end
  begin
     id 19
     name lradius
     direction 1 -4.48968e-011 -2.22911e-027   
     length 3.43679   
     axis 180 -30 -90   XYZ
    dof rx
    limits (-10.0 170.0)
  end
  begin
     id 20
     name lwrist
     direction 1 -4.48951e-011 -6.32245e-027   
     length 1.7184   
     axis 3.57107e-015 90 90   XYZ
    dof ry
    limits (-180.0 0.0)
 end
  begin
     id 21 
     name lhand
     direction 1 -4.48924e-011 -1.26431e-026   
     length 0.573117   
     axis 8.06912e-015 90 90   XYZ
    dof rx rz
    limits (-90.0 90.0)
           (-45.0 45.0)
  end
  begin
     id 22 
     name lfingers
     direction 1 -4.49001e-011 -2.52965e-026   
     length 0.462062   
     axis 1.61381e-014 90 90   XYZ
    dof rx
    limits (0.0 90.0)
  end
  begin
     id 23
     name lthumb
     direction 0.707107 -6.35008e-011 0.707107   
     length 0.663431   
     axis -90 45 -1.62303e-014   XYZ
    dof rx rz
    limits (-45.0 45.0)
           (-45.0 45.0)
  end
  begin
     id 24 
     name rclavicle
     direction -0.963917 0.256881 -0.0698287   
     length 3.73057  
     axis 0 0 0   XYZ 
    dof ry rz
    limits (-10.0 20.0)
           (-20.0 0.0)
  end
  begin
     id 25 
     name rhumerus
     direction -1 -4.48962e-011 -2.73982e-027  
     length 5.23908   
     axis 180 30 90   XYZ
    dof rx ry rz
    limits (-90.0 60.0)
           (-90.0 90.0)
           (-90.0 90.0)
  end
  begin
     id 26 
     name rradius
     direction -1 -4.48968e-011 -4.33218e-027   
     length 3.46485   
     axis 180 30 90   XYZ
    dof rx
    limits (-10.0 170.0)
  end
  begin
     id 27 
     name rwrist
     direction -1 -4.48989e-011 -6.32372e-027   
     length 1.73243   
     axis 3.57107e-015 -90 -90   XYZ
    dof ry
    limits (-180.0 0.0)
  end
  begin
     id 28
     name rhand
     direction -1 -4.48948e-011 -1.26448e-026   
     length 0.608752   
     axis 8.06912e-015 -90 -90   XYZ
    dof rx rz
    limits (-90.0 90.0)
           (-45.0 45.0)
  end
  begin
     id 29
     name rfingers
     direction -1 -4.48962e-011 -2.52913e-026   
     length 0.490792   
     axis 1.61381e-014 -90 -90   XYZ
    dof rx
    limits (0.0 90.0)
  end
  begin
     id 30
     name rthumb
     direction -0.707107 -6.34878e-011 0.707107   
     length 0.704682   
     axis -90 -45 1.62303e-014   XYZ
    dof rx rz
    limits (-45.0 45.0)
           (-45.0 45.0)
  end
:hierarchy
  begin
    root lhipjoint rhipjoint lowerback
    lhipjoint lfemur
    lfemur ltibia
    ltibia lfoot
    lfoot ltoes
    rhipjoint rfemur
    rfemur rtibia
    rtibia rfoot
    rfoot rtoes
    lowerback upperback
    upperback thorax
    thorax lowerneck lclavicle rclavicle
    lowerneck upperneck
    upperneck head
    lclavicle lhumerus
    lhumerus lradius
    lradius lwrist
    lwrist lhand lthumb
    lhand lfingers
    rclavicle rhumerus
    rhumerus rradius
    rradius rwrist
    rwrist rhand rthumb
    rhand rfingers
  end

#!OML:ASF G:\JayActor3\Patient Classification 1\Patient 1\Session 6\male.ASF
:FULLY-SPECIFIED
:DEGREES
99
root 43.2443 16.0063 15.7713 174.863 -41.7924 -174.453
lowerback -1.77699 -1.11981 2.41781
upperback 2.94635 -1.6742 0.90485
thorax 3.99038 -0.797966 -0.509962
lowerneck -5.66002 -1.24022 0.405813
upperneck 4.35134 -2.0714 5.24648
head 2.42345 -0.902344 1.53226
rclavicle -3.0911e-014 -7.55382e-015
rhumerus -33.3411 -7.91525 -84.1086
rradius 30.7628
rwrist 2.20696
rhand -18.5156 -5.29337
rfingers 7.12502
rthumb 7.77266 -35.1305
lclavicle -3.0911e-014 -7.55382e-015
lhumerus -28.6567 8.28284 85.6251
lradius 21.3214
lwrist 11.7323
lhand -17.5537 12.3288
lfingers 7.12502
lthumb 8.70108 42.1295
rfemur -10.5089 0.145507 24.8935
rtibia 35.4425
rfoot -26.3698 -14.0582
rtoes 7.2938
lfemur -2.52914 7.55504 -15.995
ltibia 25.0688
lfoot -22.5421 18.5914
ltoes -0.3168
100
root 43.2429 16.0055 15.7676 174.846 -41.8573 -174.447
lowerback -1.79454 -1.13143 2.43461
upperback 2.93471 -1.69111 0.921044
thorax 3.98788 -0.806175 -0.503786
lowerneck -5.67002 -1.24822 0.367646
upperneck 4.43802 -2.08129 5.22402
head 2.45464 -0.906325 1.53184
rclavicle 6.49405e-014 -5.96354e-015
rhumerus -33.3656 -7.95536 -84.0366
rradius 30.6689
rwrist 2.2502
rhand -18.515 -5.29524
rfingers 7.12502
rthumb 7.77324 -35.1324
lclavicle 6.49405e-014 -5.96354e-015
lhumerus -28.7469 8.43069 85.5497
lradius 21.2417
lwrist 11.6469
lhand -17.5629 12.3106
lfingers 7.12502
lthumb 8.69216 42.1116
rfemur -10.4724 0.104828 24.897
rtibia 35.4397
rfoot -26.4018 -14.0773
rtoes 7.27199
lfemur -2.51709 7.54806 -15.9828
ltibia 25.081
lfoot -22.5311 18.5447
ltoes -0.366081
101
root 43.2414 16.0048 15.764 174.835 -41.9205 -174.444
lowerback -1.81316 -1.13917 2.44892
upperback 2.92049 -1.70253 0.935383
thorax 3.98345 -0.811677 -0.497849
lowerneck -5.6814 -1.25926 0.334508
upperneck 4.52203 -2.09577 5.20304
head 2.48531 -0.91259 1.53081
rclavicle -1.19296e-013 -2.5842e-015
rhumerus -33.3946 -8.01767 -83.9559
rradius 30.5731
rwrist 2.32194
rhand -18.518 -5.30476
rfingers 7.12502
rthumb 7.77036 -35.142
lclavicle -1.19296e-013 -2.5842e-015
lhumerus -28.8393 8.5579 85.4794
lradius 21.1751
lwrist 11.5792
lhand -17.5677 12.2907
lfingers 7.12502
lthumb 8.68751 42.092
rfemur -10.4415 0.0655968 24.8979
rtibia 35.4391
rfoot -26.4388 -14.0904
rtoes 7.27176
lfemur -2.50717 7.54408 -15.9732
ltibia 25.0902
lfoot -22.521 18.4964
ltoes -0.410343
102
root 43.24 16.0041 15.7604 174.827 -41.9833 -174.442
lowerback -1.82888 -1.14364 2.46129
upperback 2.90375 -1.70919 0.9483
thorax 3.97488 -0.814876 -0.491952
lowerneck -5.69213 -1.27379 0.307455
upperneck 4.59975 -2.11507 5.18136
head 2.51382 -0.921372 1.52824
rclavicle 3.00041e-014 -5.56597e-015
rhumerus -33.4278 -8.09699 -83.8686
rradius 30.4755
rwrist 2.41606
rhand -18.5168 -5.3138
rfingers 7.12502
rthumb 7.77158 -35.151
lclavicle 3.00041e-014 -5.56597e-015
lhumerus -28.937 8.66857 85.4137
lradius 21.1272
lwrist 11.5211
lhand -17.5398 12.3212
lfingers 7.12502
lthumb 8.7145 42.1213
rfemur -10.4142 0.030789 24.8978
rtibia 35.4411
rfoot -26.4836 -14.0925
rtoes 7.30918
lfemur -2.49833 7.54124 -15.9644
ltibia 25.0967
lfoot -22.5125 18.4443
ltoes -0.437988
103
root 43.2386 16.0035 15.7569 174.821 -42.0439 -174.443
lowerback -1.84169 -1.14541 2.47297
upperback 2.88663 -1.71201 0.958876
thorax 3.9643 -0.816154 -0.487809
lowerneck -5.71361 -1.28988 0.290243
upperneck 4.67885 -2.13746 5.1572
head 2.54469 -0.931476 1.52298
rclavicle -4.33599e-015 -7.95139e-016
rhumerus -33.4647 -8.1877 -83.7782
rradius 30.3794
rwrist 2.53411
rhand -18.512 -5.33399
rfingers 7.12502
rthumb 7.77614 -35.171
lclavicle -4.33599e-015 -7.95139e-016
lhumerus -29.0344 8.76294 85.3517
lradius 21.0927
lwrist 11.4729
lhand -17.503 12.3552
lfingers 7.12502
lthumb 8.74994 42.1539
rfemur -10.3895 -0.00233077 24.8961
rtibia 35.445
rfoot -26.5267 -14.0952
rtoes 7.33616
lfemur -2.48952 7.54571 -15.956
ltibia 25.1012
lfoot -22.5042 18.386
ltoes -0.458263
104
root 43.2371 16.0028 15.7537 174.814 -42.1007 -174.445
lowerback -1.84956 -1.14322 2.48592
upperback 2.87014 -1.70928 0.965842
thorax 3.95158 -0.814597 -0.487703
lowerneck -5.733 -1.30972 0.282185
upperneck 4.75018 -2.16508 5.13069
head 2.57256 -0.944319 1.51505
rclavicle -7.65072e-014 9.34288e-015
rhumerus -33.5064 -8.29105 -83.6865
rradius 30.2845
rwrist 2.66977
rhand -18.502 -5.35237
rfingers 7.12502
rthumb 7.78587 -35.189
lclavicle -7.65072e-014 9.34288e-015
lhumerus -29.1329 8.83647 85.2944
lradius 21.0735
lwrist 11.4372
lhand -17.4828 12.3726
lfingers 7.12502
lthumb 8.76948 42.1704
rfemur -10.3638 -0.0353105 24.8923
rtibia 35.4506
rfoot -26.5646 -14.0993
rtoes 7.35136
lfemur -2.47704 7.55146 -15.9492
ltibia 25.104
lfoot -22.4978 18.3267
ltoes -0.461431
105
root 43.2357 16.0021 15.7506 174.808 -42.1573 -174.45
lowerback -1.85569 -1.1404 2.49846
upperback 2.8547 -1.7056 0.970886
thorax 3.93893 -0.812547 -0.489273
lowerneck -5.75276 -1.32973 0.28129
upperneck 4.81408 -2.19293 5.10103
head 2.59786 -0.9574 1.50474
rclavicle -4.13969e-014 1.74931e-014
rhumerus -33.5482 -8.39736 -83.5965
rradius 30.1877
rwrist 2.81474
rhand -18.4807 -5.35793
rfingers 7.12502
rthumb 7.80635 -35.1938
lclavicle -4.13969e-014 1.74931e-014
lhumerus -29.2306 8.90244 85.2391
lradius 21.0677
lwrist 11.4081
lhand -17.4758 12.3938
lfingers 7.12502
lthumb 8.77622 42.1913
rfemur -10.3393 -0.0663806 24.8878
rtibia 35.4572
rfoot -26.6009 -14.1093
rtoes 7.35028
lfemur -2.46453 7.55828 -15.9438
ltibia 25.1056
lfoot -22.4879 18.2687
ltoes -0.474853
106
root 43.2343 16.0015 15.7478 174.803 -42.213 -174.457
lowerback -1.86046 -1.13657 2.5116
upperback 2.84046 -1.70047 0.973092
thorax 3.9267 -0.809698 -0.494005
lowerneck -5.76556 -1.35202 0.283758
upperneck 4.86884 -2.22347 5.07026
head 2.61879 -0.972074 1.49331
rclavicle -4.59193e-014 8.94531e-015
rhumerus -33.5898 -8.50446 -83.5097
rradius 30.0862
rwrist 2.95498
rhand -18.4513 -5.35096
rfingers 7.12502
rthumb 7.83478 -35.1858
lclavicle -4.59193e-014 8.94531e-015
lhumerus -29.3297 8.95652 85.1874
lradius 21.0736
lwrist 11.3926
lhand -17.4936 12.3868
lfingers 7.12502
lthumb 8.75903 42.185
rfemur -10.3148 -0.0995586 24.8804
rtibia 35.4639
rfoot -26.631 -14.1219
rtoes 7.32934
lfemur -2.45154 7.56256 -15.9417
ltibia 25.1068
lfoot -22.476 18.2155
ltoes -0.489182
107
root 43.2331 16.001 15.7452 174.801 -42.2666 -174.461
lowerback -1.86685 -1.13288 2.5256
upperback 2.82525 -1.69561 0.976296
thorax 3.91439 -0.806976 -0.498235
lowerneck -5.767 -1.37479 0.280977
upperneck 4.91015 -2.25373 5.04559
head 2.6333 -0.986967 1.48472
rclavicle 3.40046e-014 -3.97569e-015
rhumerus -33.6283 -8.61301 -83.4223
rradius 29.9748
rwrist 3.09807
rhand -18.4157 -5.31293
rfingers 7.12502
rthumb 7.86911 -35.1465
lclavicle 3.40046e-014 -3.97569e-015
lhumerus -29.4311 9.00571 85.1397
lradius 21.0933
lwrist 11.3859
lhand -17.5174 12.3721
lfingers 7.12502
lthumb 8.73609 42.1713
rfemur -10.2972 -0.128738 24.8764
rtibia 35.4693
rfoot -26.6598 -14.1367
rtoes 7.31872
lfemur -2.44619 7.55882 -15.9397
ltibia 25.1087
lfoot -22.4639 18.1741
ltoes -0.505711
108
root 43.2323 16.0007 15.743 174.798 -42.3178 -174.459
lowerback -1.87006 -1.12855 2.54209
upperback 2.81024 -1.69002 0.981172
thorax 3.90048 -0.803898 -0.502025
lowerneck -5.75926 -1.39973 0.27398
upperneck 4.94355 -2.286 5.02191
head 2.64358 -1.00317 1.47709
rclavicle -6.5748e-014 2.46493e-014
rhumerus -33.661 -8.72997 -83.331
rradius 29.8458
rwrist 3.23508
rhand -18.383 -5.20552
rfingers 7.12502
rthumb 7.90073 -35.0379
lclavicle -6.5748e-014 2.46493e-014
lhumerus -29.5351 9.04777 85.0984
lradius 21.1301
lwrist 11.3889
lhand -17.538 12.3634
lfingers 7.12502
lthumb 8.71615 42.1635
rfemur -10.2831 -0.15506 24.8776
rtibia 35.4726
rfoot -26.6893 -14.1488
rtoes 7.32827
lfemur -2.44636 7.5501 -15.9344
ltibia 25.1126
lfoot -22.4535 18.1374
ltoes -0.516405
109
root 43.2319 16.0006 15.7411 174.79 -42.3706 -174.448
lowerback -1.87168 -1.12457 2.56326
upperback 2.79555 -1.68517 0.988209
thorax 3.88595 -0.801132 -0.506217
lowerneck -5.73943 -1.42612 0.260496
upperneck 4.96647 -2.31926 5.00313
head 2.64831 -1.02021 1.47212
rclavicle 2.96624e-014 -1.39149e-015
rhumerus -33.6874 -8.85182 -83.238
rradius 29.7061
rwrist 3.36688
rhand -18.3616 -5.05401
rfingers 7.12502
rthumb 7.92137 -34.8856
lclavicle 2.96624e-014 -1.39149e-015
lhumerus -29.6326 9.06815 85.0666
lradius 21.1747
lwrist 11.4117
lhand -17.5551 12.3564
lfingers 7.12502
lthumb 8.69972 42.1571
rfemur -10.2732 -0.178069 24.8876
rtibia 35.473
rfoot -26.7198 -14.1642
rtoes 7.34957
lfemur -2.45552 7.53944 -15.9217
ltibia 25.1206
lfoot -22.4422 18.1004
ltoes -0.520159
110
root 43.2317 16.0005 15.7395 174.778 -42.418 -174.43
lowerback -1.86596 -1.11911 2.58824
upperback 2.78078 -1.67839 0.99712
thorax 3.86719 -0.797425 -0.510344
lowerneck -5.71626 -1.45183 0.245948
upperneck 4.98379 -2.3513 4.98577
head 2.65055 -1.03677 1.46784
rclavicle 2.59041e-014 -1.19271e-014
rhumerus -33.7102 -8.96787 -83.1482
rradius 29.5645
rwrist 3.48074
rhand -18.342 -4.89843
rfingers 7.12502
rthumb 7.94026 -34.7293
lclavicle 2.59041e-014 -1.19271e-014
lhumerus -29.7257 9.07364 85.0419
lradius 21.2265
lwrist 11.4423
lhand -17.5477 12.3726
lfingers 7.12502
lthumb 8.70681 42.173
rfemur -10.2638 -0.196656 24.9035
rtibia 35.4708
rfoot -26.7489 -14.1775
rtoes 7.39435
lfemur -2.46747 7.53079 -15.9037
ltibia 25.1334
lfoot -22.4355 18.0654
ltoes -0.523905
111
root 43.2318 16.0004 15.7383 174.758 -42.4659 -174.405
lowerback -1.85205 -1.11484 2.61696
upperback 2.76605 -1.67321 1.00806
thorax 3.84375 -0.794553 -0.51436
lowerneck -5.69112 -1.47517 0.228914
upperneck 4.99807 -2.37987 4.97008
head 2.65138 -1.05169 1.46467
rclavicle -3.62223e-014 2.88238e-015
rhumerus -33.7322 -9.06485 -83.0669
rradius 29.4291
rwrist 3.56204
rhand -18.3345 -4.77187
rfingers 7.12502
rthumb 7.94745 -34.6025
lclavicle -3.62223e-014 2.88238e-015
lhumerus -29.8153 9.06525 85.025
lradius 21.2635
lwrist 11.5226
lhand -17.5923 12.2316
lfingers 7.12502
lthumb 8.66377 42.0339
rfemur -10.2525 -0.210626 24.926
rtibia 35.4668
rfoot -26.777 -14.1998
rtoes 7.42913
lfemur -2.48141 7.52791 -15.879
ltibia 25.1514
lfoot -22.4276 18.0271
ltoes -0.541454
112
root 43.2318 16.0003 15.7372 174.738 -42.5109 -174.381
lowerback -1.83551 -1.10897 2.64726
upperback 2.75247 -1.66583 1.01705
thorax 3.82 -0.790521 -0.521125
lowerneck -5.66815 -1.4971 0.218138
upperneck 5.00743 -2.40691 4.95408
head 2.65081 -1.06581 1.46033
rclavicle 1.7052e-014 8.94531e-016
rhumerus -33.7535 -9.15011 -82.9971
rradius 29.3051
rwrist 3.6157
rhand -18.3298 -4.699
rfingers 7.12502
rthumb 7.95205 -34.5294
lclavicle 1.7052e-014 8.94531e-016
lhumerus -29.8987 9.03784 85.0144
lradius 21.2898
lwrist 11.6433
lhand -17.6969 11.9608
lfingers 7.12502
lthumb 8.56281 41.7672
rfemur -10.2412 -0.222634 24.9485
rtibia 35.4623
rfoot -26.8007 -14.227
rtoes 7.44516
lfemur -2.49652 7.53155 -15.8541
ltibia 25.1739
lfoot -22.4209 17.9864
ltoes -0.567089
113
root 43.2318 16 15.7363 174.72 -42.5515 -174.357
lowerback -1.81675 -1.10241 2.67697
upperback 2.73876 -1.65738 1.02539
thorax 3.79489 -0.785988 -0.528127
lowerneck -5.64665 -1.51677 0.213699
upperneck 5.00814 -2.43079 4.93475
head 2.64733 -1.07846 1.45386
rclavicle -1.42721e-013 1.28216e-014
rhumerus -33.7742 -9.21868 -82.9389
rradius 29.1942
rwrist 3.65099
rhand -18.3233 -4.67357
rfingers 7.12502
rthumb 7.95834 -34.5037
lclavicle -1.42721e-013 1.28216e-014
lhumerus -29.9791 9.0066 85.0056
lradius 21.3068
lwrist 11.7942
lhand -17.8514 11.5743
lfingers 7.12502
lthumb 8.41371 41.3867
rfemur -10.2318 -0.230294 24.9709
rtibia 35.4578
rfoot -26.8164 -14.2648
rtoes 7.42777
lfemur -2.51324 7.54329 -15.8295
ltibia 25.1998
lfoot -22.4144 17.9441
ltoes -0.609833
